<?xml version="1.0" standalone="no"?>
<!DOCTYPE svg PUBLIC "-//W3C//DTD SVG 20010904//EN"
 "http://www.w3.org/TR/2001/REC-SVG-20010904/DTD/svg10.dtd">
<svg version="1.0" xmlns="http://www.w3.org/2000/svg"
 width="260.000000pt" height="260.000000pt" viewBox="0 0 260.000000 260.000000"
 preserveAspectRatio="xMidYMid meet">
<metadata>
Created by potrace 1.11, written by Peter Selinger 2001-2013
</metadata>
<g transform="translate(0.000000,260.000000) scale(0.100000,-0.100000)"
fill="#000000" stroke="none">
<path d="M0 1300 l0 -1300 1300 0 1300 0 0 1300 0 1300 -1300 0 -1300 0 0
-1300z m1271 618 c19 -6 57 -26 84 -43 28 -18 82 -50 120 -73 39 -22 81 -52
94 -66 14 -14 33 -26 44 -26 24 0 22 -6 -36 -79 l-47 -61 -53 41 c-58 47 -141
89 -174 89 -41 0 -81 -47 -105 -123 -30 -97 -30 -181 0 -229 16 -26 19 -37 10
-40 -8 -3 -1 -12 17 -24 42 -27 179 -25 252 3 l51 20 40 -41 c39 -41 72 -85
72 -97 0 -9 -64 -36 -143 -59 -37 -12 -100 -36 -139 -55 -113 -54 -175 -45
-257 38 -37 37 -121 180 -121 206 0 6 7 11 16 11 13 0 15 6 10 28 -25 117 -27
162 -12 244 8 46 18 94 22 107 6 20 4 23 -9 18 -25 -9 -21 11 12 68 38 65 98
123 147 140 49 18 62 18 105 3z m587 -141 c3 -82 4 -88 27 -99 15 -7 25 -20
25 -32 0 -12 3 -31 6 -44 6 -21 11 -22 48 -17 29 5 60 1 99 -13 l57 -19 0 34
c0 27 -5 36 -21 40 -19 5 -20 10 -14 67 4 33 8 62 10 64 2 2 26 -4 54 -14 29
-9 64 -14 81 -11 l29 6 -6 -68 c-5 -64 -4 -69 16 -76 18 -6 21 -14 21 -68 1
-55 13 -140 35 -244 6 -27 4 -33 -10 -33 -22 0 -17 -22 30 -140 19 -46 33 -86
31 -87 -2 -2 -19 4 -39 12 -20 8 -65 15 -100 15 l-64 0 -23 105 c-24 107 -24
121 -3 119 15 -2 5 87 -11 98 -25 17 -110 30 -151 23 l-45 -6 0 -48 c0 -39 -4
-50 -18 -53 -16 -5 -17 -13 -11 -83 16 -160 15 -190 -5 -193 -11 -2 -56 8
-102 23 l-84 27 0 125 c0 112 2 124 18 121 9 -2 17 2 17 7 -2 63 -17 309 -22
338 -4 27 -10 37 -23 37 -24 0 -30 20 -30 95 l0 63 38 10 c20 6 60 10 87 9
l50 -2 3 -88z m-1003 60 c17 -13 16 -17 -19 -76 -40 -70 -42 -76 -21 -67 18 6
19 -4 4 -38 -10 -21 -15 -23 -43 -15 -142 41 -299 -66 -343 -233 -10 -41 -10
-57 1 -89 12 -34 12 -40 -1 -48 -12 -6 -10 -12 13 -28 46 -33 102 -46 165 -40
75 7 119 32 119 69 0 18 5 28 15 28 16 0 21 25 6 34 -5 3 -27 0 -48 -8 -22 -8
-60 -16 -84 -17 -40 -4 -44 -2 -47 20 -2 14 4 53 13 87 l16 61 57 16 c31 9 84
32 117 52 83 51 155 87 155 78 0 -5 1 -77 3 -160 3 -143 2 -153 -15 -153 -15
0 -18 -9 -18 -63 0 -84 -22 -125 -85 -157 -44 -21 -65 -25 -196 -28 l-146 -4
-65 30 c-42 21 -84 52 -121 91 -58 60 -69 81 -42 81 11 0 11 8 -5 43 -11 23
-20 50 -20 59 0 23 62 140 101 189 23 29 29 43 20 48 -17 11 120 138 188 174
107 59 285 93 326 64z m385 -1061 c0 -2 -9 -25 -20 -51 -11 -26 -20 -50 -20
-54 0 -5 70 16 155 45 161 55 173 56 144 2 -6 -11 -9 -22 -6 -24 3 -3 40 4 82
15 43 11 74 16 69 11 -13 -12 -176 -62 -182 -55 -3 3 0 16 6 30 7 14 12 30 12
35 0 5 -68 -14 -151 -42 -82 -27 -152 -48 -155 -46 -2 3 7 30 21 61 13 32 21
57 16 57 -4 0 -30 -7 -57 -15 -75 -23 -77 -16 -4 10 64 23 90 29 90 21z"/>
</g>
</svg>
